<svg xmlns="http://www.w3.org/2000/svg" viewBox="50 50 100 100">
    <g fill="#D02E24" transform="matrix(2.946058, 0, 0, 2.946058, 0.921836, 1.021837)">
        <path
            d="M7.3 12.2c-.2 0-.3 0-.5-.1v16.4c0 1.6 1.3 2.9 2.9 2.9h12.4c1.6 0 2.9-1.3 2.9-2.9V12.2c-.2 0-.3.1-.5.1H7.3v-.1Zm5.1 13.6c0 .4-.3.8-.8.8-.4 0-.8-.3-.8-.8v-11c0-.4.3-.8.8-.8.4 0 .8.3.8.8v11Zm4.4 0c0 .4-.3.8-.8.8s-.8-.3-.8-.8v-11c0-.4.3-.8.8-.8s.8.3.8.8v11Zm4.4 0c0 .4-.3.8-.8.8s-.8-.3-.8-.8v-11c0-.4.3-.8.8-.8s.8.3.8.8v11ZM24.7 3.9h-4L20 1.1c-.1-.3-.4-.6-.7-.6h-6.5c-.4 0-.7.2-.7.6l-.7 2.8h-4C5.5 3.9 4 5.4 4 7.3s1.5 3.4 3.4 3.4h17.3c1.9 0 3.4-1.5 3.4-3.4s-1.6-3.4-3.4-3.4ZM13.4 2h5.3l.4 1.8h-6.2l.5-1.8Z" />
    </g>
</svg>