<svg xmlns="http://www.w3.org/2000/svg" xmlns:xlink="http://www.w3.org/1999/xlink" version="1.1" x="0px" y="0px"
    viewBox="0 0 32 32" xml:space="preserve">
    <g>
        <path fill="#ed2f2f"
            d="M7.3,12.2c-0.2,0-0.3,0-0.5-0.1v16.4c0,1.6,1.3,2.9,2.9,2.9h12.4c1.6,0,2.9-1.3,2.9-2.9V12.2c-0.2,0-0.3,0.1-0.5,0.1H7.3z    M12.4,25.8c0,0.4-0.3,0.8-0.8,0.8c-0.4,0-0.8-0.3-0.8-0.8v-11c0-0.4,0.3-0.8,0.8-0.8c0.4,0,0.8,0.3,0.8,0.8V25.8z M16.8,25.8   c0,0.4-0.3,0.8-0.8,0.8s-0.8-0.3-0.8-0.8v-11c0-0.4,0.3-0.8,0.8-0.8s0.8,0.3,0.8,0.8V25.8z M21.2,25.8c0,0.4-0.3,0.8-0.8,0.8   s-0.8-0.3-0.8-0.8v-11c0-0.4,0.3-0.8,0.8-0.8s0.8,0.3,0.8,0.8V25.8z" />
        <path fill="#ed2f2f"
            d="M24.7,3.9h-4L20,1.1c-0.1-0.3-0.4-0.6-0.7-0.6h-6.5c-0.4,0-0.7,0.2-0.7,0.6l-0.7,2.8h-4c-1.9,0-3.4,1.5-3.4,3.4   c0,1.9,1.5,3.4,3.4,3.4h17.3c1.9,0,3.4-1.5,3.4-3.4C28.1,5.4,26.5,3.9,24.7,3.9z M13.4,2h5.3l0.4,1.8h-6.2L13.4,2z" />
    </g>
</svg>