<svg xmlns="http://www.w3.org/2000/svg" viewBox="50 50 100 100">
  <defs>
    <linearGradient id="a" x1="49.744" x2="49.744" y1="3.48" y2="96.52" gradientUnits="userSpaceOnUse"
      spreadMethod="pad">
      <stop offset="0" stop-color="#55b4da" />
      <stop offset="1" stop-color="#295a8d" />
    </linearGradient>
    <linearGradient id="b" x1="79.75" x2="79.75" y1="40.097" y2="71.172" gradientUnits="userSpaceOnUse"
      spreadMethod="pad">
      <stop offset="0" stop-color="#55b4da" />
      <stop offset="1" stop-color="#295a8d" />
    </linearGradient>
    <linearGradient id="c" x1="13.391" x2="13.391" y1="9.114" y2="37.371" gradientUnits="userSpaceOnUse"
      spreadMethod="pad">
      <stop offset="0" stop-color="#55b4da" />
      <stop offset="1" stop-color="#295a8d" />
    </linearGradient>
    <linearGradient id="d" x1="86.617" x2="86.617" y1="3.481" y2="31.738" gradientUnits="userSpaceOnUse"
      spreadMethod="pad">
      <stop offset="0" stop-color="#55b4da" />
      <stop offset="1" stop-color="#295a8d" />
    </linearGradient>
    <linearGradient id="e" x1="40.139" x2="40.139" y1="62.629" y2="85.254" gradientUnits="userSpaceOnUse"
      spreadMethod="pad">
      <stop offset="0" stop-color="#55b4da" />
      <stop offset="1" stop-color="#295a8d" />
    </linearGradient>
  </defs>
  <g paint-order="fill">
    <path fill="url(#a)"
      d="M50 96.52c-17.887 0-32.438-14.551-32.438-32.438 0-17.391 29.988-58.277 31.266-60.012a1.46 1.46 0 0 1 2.344 0c.172.234 17.336 23.602 26.078 42.477.336.73.019 1.594-.707 1.93-.731.336-1.547-1.409-1.93-.707-2.045 3.747-2.405 23.468 4.43 21.655.775-.206.902-1.313 1.691-1.168.79.144 1.313.902 1.168 1.691C79.094 85.343 65.675 96.518 50 96.518v.002"
      transform="matrix(.99959 0 0 1 .015 0)" />
    <path fill="url(#b)"
      d="M79.75 71.172c-6.141 0-11.137-4.996-11.137-11.137 0-5.66 8.945-17.961 9.965-19.348a1.46 1.46 0 0 1 2.344 0c1.019 1.383 9.964 13.684 9.964 19.348 0 6.141-4.996 11.137-11.137 11.137h.001Z"
      transform="matrix(.99959 0 0 1 .015 0)" />
    <path fill="url(#c)"
      d="M13.387 37.371c-5.461 0-9.902-4.562-9.902-10.168 0-5.129 7.828-16.23 8.722-17.48a1.456 1.456 0 0 1 2.368 0c.89 1.25 8.722 12.352 8.722 17.48-.008 5.606-4.449 10.168-9.91 10.168Z"
      transform="matrix(.99959 0 0 1 .015 0)" />
    <path fill="url(#d)"
      d="M86.613 31.738c-5.461 0-9.902-4.562-9.902-10.168 0-5.129 7.828-16.23 8.722-17.48a1.456 1.456 0 0 1 2.368 0c.89 1.25 8.722 12.352 8.722 17.48-.004 5.606-4.445 10.168-9.91 10.168Z"
      transform="matrix(.99959 0 0 1 .015 0)" />
    <path fill="url(#e)"
      d="M50 85.254c-11.672 0-21.172-9.496-21.172-21.172a1.453 1.453 0 1 1 2.906 0c0 10.07 8.192 18.262 18.262 18.262.805 0 1.453.652 1.453 1.453A1.448 1.448 0 0 1 50 85.254z"
      filter="none" transform="matrix(.99959 0 0 1 .015 0)" />
  </g>
</svg>